<svg xmlns="http://www.w3.org/2000/svg" version="1.1" xmlns:xlink="http://www.w3.org/1999/xlink" xmlns:svgjs="http://svgjs.dev/svgjs" width="2000" height="1500" viewBox="0 0 2000 1500"><rect width="2000" height="1500" fill="#8d021f"></rect><g transform="matrix(0.3097893432465923,0,0,0.3097893432465923,689.7243443181982,250.40485829959528)"><svg viewBox="0 0 153 247" data-background-color="#8d021f" preserveAspectRatio="xMidYMid meet" height="3228" width="2000" xmlns="http://www.w3.org/2000/svg" xmlns:xlink="http://www.w3.org/1999/xlink"><g id="tight-bounds" transform="matrix(1,0,0,1,0.12009168302625994,-0.09999999999999432)"><svg viewBox="0 0 152.75981735159817 247.2" height="247.2" width="152.75981735159817"><g><svg viewBox="0 0 152.75981735159817 247.2" height="247.2" width="152.75981735159817"><g><svg viewBox="0 0 152.75981735159817 247.2" height="247.2" width="152.75981735159817"><g id="textblocktransform"><svg viewBox="0 0 152.75981735159817 247.2" height="247.2" width="152.75981735159817" id="textblock"><g><svg viewBox="0 0 152.75981735159817 247.2" height="247.2" width="152.75981735159817"><g transform="matrix(1,0,0,1,0,0)"><svg width="152.75981735159817" viewBox="1.9000000953674316 -32.45000076293945 20.30000114440918 32.85000228881836" height="247.2" data-palette-color="#ffffff"><path d="M13.7-32.45Q17.5-32.45 21.3-30.85L21.3-30.85 20.45-26.15 19.65-25.85Q18.05-27 16.35-27.65 14.65-28.3 13.1-28.3L13.1-28.3Q10.65-28.3 9.2-26.95 7.75-25.6 7.75-23.8L7.75-23.8Q7.75-22.05 9.2-20.93 10.65-19.8 13.75-18.35L13.75-18.35Q16.45-17.05 18.13-16 19.8-14.95 21-13.23 22.2-11.5 22.2-9.1L22.2-9.1Q22.2-6.5 20.78-4.33 19.35-2.15 16.78-0.88 14.2 0.4 10.9 0.4L10.9 0.4Q8.7 0.4 6.35-0.15 4-0.7 1.9-1.75L1.9-1.75 2.55-6.85 3.2-7.15Q5.05-5.4 7.28-4.53 9.5-3.65 11.4-3.65L11.4-3.65Q14-3.65 15.55-5.03 17.1-6.4 17.1-8.3L17.1-8.3Q17.1-10.2 15.6-11.38 14.1-12.55 11-14L11-14Q8.35-15.25 6.7-16.28 5.05-17.3 3.88-19 2.7-20.7 2.7-23.1L2.7-23.1Q2.7-25.7 4.1-27.85 5.5-30 8-31.23 10.5-32.45 13.7-32.45L13.7-32.45Z" opacity="1" transform="matrix(1,0,0,1,0,0)" fill="#ffffff" class="wordmark-text-0" data-fill-palette-color="primary" id="text-0"></path></svg></g></svg></g></svg></g></svg></g></svg></g><defs></defs></svg><rect width="152.75981735159817" height="247.2" fill="none" stroke="none" visibility="hidden"></rect></g></svg></g></svg>